<?xml version='1.0' encoding='utf-8'?>
<svg xmlns="http://www.w3.org/2000/svg" enable-background="new 0 0 958.572 1762.461" version="1.1" viewBox="0 0 958.572 1762.461">
	<path d="m276.42 871.69c2.86 2.295 5.778 4.565 8.755 6.811-2.977-2.247-5.895-4.517-8.755-6.811z" fill="none"/>
	<path d="m251.31 849.46c-3.081-3.023-6.106-6.069-9.008-9.166 2.902 3.097 5.927 6.143 9.008 9.166z" fill="none"/>
	<path d="m287.73 880.44c3.686 2.732 7.454 5.43 11.316 8.091-3.862-2.66-7.631-5.358-11.316-8.091z" fill="none"/>
	<path d="m376.58 1363.7c-2.044-0.815-3.994-1.646-5.891-2.485 1.897 0.839 3.847 1.67 5.891 2.485z" fill="none"/>
	<path d="m368.96 1360.4c-1.293-0.591-2.557-1.187-3.779-1.789 1.222 0.602 2.486 1.198 3.779 1.789z" fill="none"/>
	<path d="m253.84 851.91c2.664 2.556 5.388 5.087 8.182 7.59-2.794-2.503-5.518-5.034-8.182-7.59z" fill="none"/>
	<path d="m713.94 373.33c0.157 1.231 0.261 2.472 0.249 3.733 0.012-1.261-0.092-2.502-0.249-3.733z" fill="none"/>
	<path d="m692.36 562.23c0.477 0.372 0.966 0.723 1.45 1.083-0.484-0.36-0.974-0.711-1.45-1.083z" fill="none"/>
	<path d="m606.9 324.2c-10.161-0.11-20.718 0.339-31.781 1.501l-10.799 1.135-0.568 61c6.392-20.242 19.849-40.591 40.416-61.047 0.971-0.902 1.881-1.765 2.732-2.589z" fill="none"/>
	<path d="m263.62 860.96c3.284 2.903 6.671 5.765 10.132 8.595-3.461-2.83-6.848-5.691-10.132-8.595z" fill="none"/>
	<path d="m363.36 1357.7c-1.174-0.603-2.307-1.212-3.411-1.827 1.104 0.614 2.237 1.224 3.411 1.827z" fill="none"/>
	<path d="m320.37 1117.2c-1.67-0.56-3.365-1.087-5.092-1.57 1.728 0.483 3.423 1.01 5.092 1.57z" fill="none"/>
	<path d="m314.78 1115.5c-1.568-0.432-3.156-0.835-4.77-1.203 1.615 0.368 3.202 0.771 4.77 1.203z" fill="none"/>
	<path d="m713.12 369.39c0.274 0.964 0.493 1.938 0.658 2.921-0.165-0.983-0.384-1.957-0.658-2.921z" fill="none"/>
	<path d="m308.14 1113.9c-1.187-0.251-2.376-0.499-3.587-0.717 1.211 0.218 2.4 0.466 3.587 0.717z" fill="none"/>
	<path d="m296.52 1112c-1.124-0.13-2.254-0.251-3.398-0.355 1.144 0.104 2.274 0.225 3.398 0.355z" fill="none"/>
	<path d="m302.34 1112.9c-1.129-0.182-2.261-0.36-3.41-0.514 1.149 0.154 2.281 0.332 3.41 0.514z" fill="none"/>
	<path d="m358.41 1355c-1.432-0.828-2.808-1.666-4.116-2.514 1.307 0.849 2.683 1.686 4.116 2.514z" fill="none"/>
	<path d="m325.29 1119c-1.104-0.436-2.232-0.84-3.362-1.24 1.13 0.401 2.258 0.804 3.362 1.24z" fill="none"/>
	<path d="m339.08 1125.8c-0.839-0.505-1.689-0.997-2.548-1.476 0.859 0.479 1.709 0.97 2.548 1.476z" fill="none"/>
	<path d="m334.65 1123.3c-0.884-0.467-1.783-0.914-2.688-1.354 0.904 0.44 1.803 0.887 2.688 1.354z" fill="none"/>
	<path d="m330.05 1121.1c-0.955-0.438-1.929-0.85-2.905-1.259 0.976 0.409 1.95 0.822 2.905 1.259z" fill="none"/>
	<path d="m757.36 787.13c-0.881-0.551-1.758-1.105-2.647-1.653 0.889 0.549 1.766 1.102 2.647 1.653z" fill="none"/>
	<path d="m701.23 756.29c-1.074-0.52-2.156-1.038-3.24-1.556 1.084 0.518 2.166 1.036 3.24 1.556z" fill="none"/>
	<path d="m689.43 750.71c-0.902-0.417-1.794-0.837-2.701-1.252 0.908 0.415 1.799 0.836 2.701 1.252z" fill="none"/>
	<path d="m711.99 761.61c-0.513-0.26-1.041-0.516-1.557-0.776 0.515 0.26 1.043 0.516 1.557 0.776z" fill="none"/>
	<path d="m675.46 744.42c-0.813-0.356-1.641-0.707-2.458-1.061 0.817 0.355 1.646 0.705 2.458 1.061z" fill="none"/>
	<path d="m663.65 739.37c-1.177-0.493-2.356-0.984-3.541-1.474 1.185 0.49 2.365 0.981 3.541 1.474z" fill="none"/>
	<path d="m725.06 768.44c-0.915-0.491-1.823-0.984-2.745-1.473 0.922 0.489 1.829 0.982 2.745 1.473z" fill="none"/>
	<path d="m650.36 733.93c-0.804-0.321-1.596-0.646-2.403-0.966 0.807 0.321 1.598 0.645 2.403 0.966z" fill="none"/>
	<path d="m290.6 1111.5c-1.152-0.084-2.314-0.155-3.485-0.214 1.172 0.059 2.334 0.13 3.485 0.214z" fill="none"/>
	<path d="m745.32 779.8c-0.114-0.067-0.232-0.134-0.347-0.201 0.115 0.068 0.233 0.134 0.347 0.201z" fill="none"/>
	<path d="m703.36 354.12c1.061 1.017 2.065 2.044 2.97 3.089-0.905-1.045-1.909-2.072-2.97-3.089z" fill="none"/>
	<path d="m635.71 728.22c-1.035-0.392-2.085-0.78-3.126-1.171 1.041 0.392 2.092 0.779 3.126 1.171z" fill="none"/>
	<path d="m699.43 350.71c1.047 0.832 2.038 1.675 2.974 2.527-0.936-0.852-1.927-1.695-2.974-2.527z" fill="none"/>
	<path d="m706.44 357.34c0.932 1.086 1.753 2.193 2.517 3.311-0.764-1.118-1.584-2.225-2.517-3.311z" fill="none"/>
	<path d="m709.57 361.59c0.574 0.901 1.093 1.811 1.56 2.732-0.467-0.921-0.986-1.832-1.56-2.732z" fill="none"/>
	<path d="m694.45 347.09c1.478 0.978 2.877 1.971 4.189 2.98-1.312-1.009-2.711-2.002-4.189-2.98z" fill="none"/>
	<path d="m711.54 365.1c0.541 1.15 1 2.316 1.375 3.497-0.375-1.182-0.834-2.347-1.375-3.497z" fill="none"/>
	<path d="m607.64 718.06c-0.556-0.192-1.101-0.387-1.659-0.579 0.558 0.192 1.103 0.387 1.659 0.579z" fill="none"/>
	<path d="m622.83 723.45c-1.273-0.462-2.547-0.925-3.828-1.385 1.282 0.46 2.555 0.923 3.828 1.385z" fill="none"/>
	<path d="m592.74 713.03c-1.227-0.404-2.468-0.804-3.702-1.206 1.234 0.402 2.475 0.802 3.702 1.206z" fill="none"/>
	<path d="m578.71 708.51c-1.318-0.416-2.633-0.833-3.959-1.246 1.327 0.414 2.641 0.831 3.959 1.246z" fill="none"/>
	<path d="m735.59 774.21c-0.955-0.537-1.92-1.071-2.884-1.606 0.964 0.535 1.929 1.069 2.884 1.606z" fill="none"/>
	<path d="m390.24 616.44l2.2-236.17c-11.666 7.682-22.214 16.169-31.599 25.491-31.138 30.898-46.874 67.276-47.264 109.17-0.319 34.208 8.103 63.071 25.197 86.65 15.6 5.501 32.737 10.462 51.466 14.866z" fill="none"/>
	<path d="m694.65 1053.5c0.779 0.518 1.535 1.037 2.292 1.555-0.757-0.518-1.513-1.036-2.292-1.555z" fill="none"/>
	<path d="m211.68 1388c1.713 1.283 3.474 2.543 5.251 3.796-1.777-1.253-3.537-2.513-5.251-3.796z" fill="none"/>
	<path d="m274.44 1111.1c1.299-0.034 2.596-0.064 3.874-0.07-1.278 6e-3 -2.575 0.036-3.874 0.07z" fill="none"/>
	<path d="m189.87 1369.1c-1.414-1.42-2.793-2.856-4.144-4.306 1.351 1.45 2.73 2.886 4.144 4.306z" fill="none"/>
	<path d="m700.88 1057.8c0.726 0.526 1.452 1.052 2.156 1.578-0.704-0.527-1.43-1.053-2.156-1.578z" fill="none"/>
	<path d="m655.53 1101.1c0.292-31.322-7.809-57.93-24.224-79.87-21.207-8.699-45.581-17.327-73.22-25.885l-2.465 264.68c18.3-10.942 34.299-23.182 47.918-36.762 34.229-34.187 51.55-74.894 51.991-122.16z" fill="none"/>
	<path d="m478.32 678.32c-1.004-0.255-1.993-0.515-2.988-0.774 0.995 0.259 1.984 0.519 2.988 0.774z" fill="none"/>
	<path d="m706.83 1062.3c0.574 0.456 1.169 0.912 1.725 1.369-0.557-0.457-1.151-0.913-1.725-1.369z" fill="none"/>
	<path d="m379.8 639.03c-0.556-0.352-1.122-0.702-1.67-1.057 0.548 0.355 1.115 0.704 1.67 1.057z" fill="none"/>
	<path d="m393.34 646.95c-0.519-0.28-1.018-0.567-1.532-0.848 0.514 0.282 1.013 0.569 1.532 0.848z" fill="none"/>
	<path d="m410.2 655.25c-0.82-0.37-1.636-0.741-2.444-1.115 0.808 0.373 1.624 0.745 2.444 1.115z" fill="none"/>
	<path d="m418.07 658.67c-0.693-0.29-1.366-0.586-2.051-0.878 0.685 0.292 1.358 0.588 2.051 0.878z" fill="none"/>
	<path d="m468.11 675.61c-1.01-0.277-2.022-0.553-3.021-0.834 0.999 0.281 2.011 0.557 3.021 0.834z" fill="none"/>
	<path d="m402.09 651.43c-0.585-0.287-1.184-0.568-1.762-0.857 0.578 0.288 1.177 0.57 1.762 0.857z" fill="none"/>
	<path d="m456.7 672.35c-0.38-0.114-0.772-0.223-1.151-0.338 0.379 0.114 0.771 0.223 1.151 0.338z" fill="none"/>
	<path d="m427.75 662.54c-0.535-0.205-1.085-0.404-1.616-0.61 0.53 0.206 1.081 0.406 1.616 0.61z" fill="none"/>
	<path d="m446.4 669.13c-0.857-0.28-1.696-0.566-2.544-0.848 0.848 0.282 1.687 0.569 2.544 0.848z" fill="none"/>
	<path d="m437.37 666.06c-0.917-0.323-1.833-0.646-2.74-0.972 0.907 0.326 1.823 0.649 2.74 0.972z" fill="none"/>
	<path d="m386.58 643.16c-0.692-0.404-1.376-0.81-2.057-1.217 0.681 0.407 1.365 0.813 2.057 1.217z" fill="none"/>
	<path d="m146.17 1288.6c0.421 2.053 0.822 4.115 1.316 6.134-0.494-2.019-0.895-4.082-1.316-6.134z" fill="none"/>
	<path d="m148.76 1299.4c0.537 1.938 1.058 3.884 1.665 5.79-0.607-1.906-1.128-3.852-1.665-5.79z" fill="none"/>
	<path d="m144.27 1277.4c0.302 2.215 0.583 4.44 0.966 6.616-0.383-2.176-0.664-4.401-0.966-6.616z" fill="none"/>
	<path d="m152.02 1309.7c0.652 1.848 1.295 3.701 2.015 5.517-0.72-1.816-1.363-3.669-2.015-5.517z" fill="none"/>
	<path d="m265.39 1111.6c-2.21 0.162-4.444 0.357-6.711 0.595 2.267-0.239 4.501-0.433 6.711-0.595z" fill="none"/>
	<path d="m284.54 1111.2c-1.196-0.04-2.407-0.061-3.623-0.074 1.216 0.013 2.426 0.034 3.623 0.074z" fill="none"/>
	<path d="m271.94 1111.2c-1.446 0.057-2.915 0.146-4.386 0.238 1.471-0.091 2.94-0.181 4.386-0.238z" fill="none"/>
	<path d="m142.51 1249.9c-0.036 3.949 0.046 7.842 0.234 11.685-0.188-3.843-0.27-7.736-0.234-11.685z" fill="none"/>
	<path d="m143.04 1265.4c0.175 2.532 0.338 5.07 0.613 7.556-0.275-2.486-0.438-5.024-0.613-7.556z" fill="none"/>
	<path d="m178.42 1356.5c1.233 1.509 2.488 3.007 3.784 4.486-1.296-1.479-2.551-2.978-3.784-4.486z" fill="none"/>
	<path d="m202.35 1380.6c1.593 1.339 3.226 2.658 4.882 3.967-1.657-1.308-3.29-2.627-4.882-3.967z" fill="none"/>
	<path d="m193.7 1372.9c1.47 1.393 2.975 2.77 4.508 4.134-1.533-1.364-3.037-2.741-4.508-4.134z" fill="none"/>
	<path d="m171.8 1347.8c1.114 1.566 2.243 3.126 3.42 4.662-1.178-1.536-2.306-3.096-3.42-4.662z" fill="none"/>
	<path d="m165.84 1338.8c0.998 1.629 2.003 3.254 3.065 4.852-1.062-1.598-2.068-3.223-3.065-4.852z" fill="none"/>
	<path d="m160.56 1329.4c0.883 1.698 1.769 3.395 2.717 5.062-0.948-1.668-1.834-3.364-2.717-5.062z" fill="none"/>
	<path d="m155.95 1319.7c0.768 1.771 1.532 3.543 2.367 5.281-0.834-1.739-1.599-3.511-2.367-5.281z" fill="none"/>
	<linearGradient id="i" x1="392.68" x2="491.22" y1="1631.3" y2="1460.6" gradientUnits="userSpaceOnUse">
		<stop stop-color="#9C420F" offset="0"/>
		<stop stop-color="#EE6321" offset=".1576"/>
		<stop stop-color="#EF6720" offset=".2028"/>
		<stop stop-color="#F0751D" offset=".2526"/>
		<stop stop-color="#F38B18" offset=".3045"/>
		<stop stop-color="#F6AA11" offset=".3579"/>
		<stop stop-color="#FBD108" offset=".412"/>
		<stop stop-color="#FFF101" offset=".45"/>
		<stop stop-color="#FFF101" offset=".55"/>
		<stop stop-color="#FEEC02" offset=".5578"/>
		<stop stop-color="#F9BB0D" offset=".6334"/>
		<stop stop-color="#F49516" offset=".705"/>
		<stop stop-color="#F1791C" offset=".7708"/>
		<stop stop-color="#EF6920" offset=".8288"/>
		<stop stop-color="#EE6321" offset=".8727"/>
		<stop stop-color="#CC5312" offset="1"/>
	</linearGradient>
	<path d="m382.48 1449l-1.563 167.83 98.32 64.385 2.108-226.34c-35.623 0.027-68.539-1.96-98.865-5.88z" fill="url(#i)"/>
	<linearGradient id="h" x1="550.26" x2="720.42" y1="1362.6" y2="1067.8" gradientUnits="userSpaceOnUse">
		<stop stop-color="#9C420F" offset="0"/>
		<stop stop-color="#EE6321" offset=".1576"/>
		<stop stop-color="#EF6720" offset=".2028"/>
		<stop stop-color="#F0751D" offset=".2526"/>
		<stop stop-color="#F38B18" offset=".3045"/>
		<stop stop-color="#F6AA11" offset=".3579"/>
		<stop stop-color="#FBD108" offset=".412"/>
		<stop stop-color="#FFF101" offset=".45"/>
		<stop stop-color="#FFF101" offset=".55"/>
		<stop stop-color="#FEEC02" offset=".5578"/>
		<stop stop-color="#F9BB0D" offset=".6334"/>
		<stop stop-color="#F49516" offset=".705"/>
		<stop stop-color="#F1791C" offset=".7708"/>
		<stop stop-color="#EF6920" offset=".8288"/>
		<stop stop-color="#EE6321" offset=".8727"/>
		<stop stop-color="#A1420E" offset="1"/>
	</linearGradient>
	<path d="m713.54 1068c-1.575-1.43-3.253-2.858-4.992-4.284-0.557-0.457-1.152-0.913-1.725-1.369-1.228-0.977-2.481-1.953-3.787-2.928-0.704-0.527-1.43-1.052-2.156-1.578-1.279-0.925-2.595-1.85-3.943-2.774-0.757-0.519-1.512-1.037-2.292-1.555-16.31-10.847-37.432-21.581-63.339-32.209 16.414 21.939 24.515 48.548 24.224 79.87-0.44 47.265-17.762 87.973-51.991 122.16-13.619 13.579-29.618 25.82-47.918 36.762l-0.978 105.04c63.886-17.421 112.96-43.253 147.22-77.413 34.23-34.187 51.551-74.894 51.991-122.16 0.374-40.276-13.062-72.797-40.31-97.558z" fill="url(#h)"/>
	<linearGradient id="g" x1="463.59" x2="348.05" y1="1324.3" y2="1366.4" gradientUnits="userSpaceOnUse">
		<stop stop-color="#9C420F" offset="0"/>
		<stop stop-color="#EE6321" offset=".1576"/>
		<stop stop-color="#EF6720" offset=".2028"/>
		<stop stop-color="#F0751D" offset=".2526"/>
		<stop stop-color="#F38B18" offset=".3045"/>
		<stop stop-color="#F6AA11" offset=".3579"/>
		<stop stop-color="#FBD108" offset=".412"/>
		<stop stop-color="#FFF101" offset=".45"/>
		<stop stop-color="#FFF101" offset=".55"/>
		<stop stop-color="#FEEC02" offset=".5578"/>
		<stop stop-color="#F9BB0D" offset=".6334"/>
		<stop stop-color="#F49516" offset=".705"/>
		<stop stop-color="#F1791C" offset=".7708"/>
		<stop stop-color="#EF6920" offset=".8288"/>
		<stop stop-color="#EE6321" offset=".8727"/>
		<stop stop-color="#A1420E" offset="1"/>
	</linearGradient>
	<path d="m354.3 1352.5c1.307 0.848 2.684 1.685 4.116 2.514 0.498 0.288 1.023 0.571 1.536 0.856 1.104 0.615 2.237 1.224 3.411 1.827 0.599 0.308 1.205 0.614 1.822 0.918 1.222 0.602 2.485 1.198 3.779 1.789 0.578 0.264 1.141 0.531 1.734 0.793 1.898 0.839 3.848 1.67 5.891 2.485 28.664 11.474 63.832 15.315 105.51 11.464l-98.32-64.385c-15.592 1.441-30.271 1.802-44.042 1.093-3.953 6.438-5.94 9.927-5.945 10.458-0.104 11.18 6.74 21.248 20.511 30.188z" fill="url(#g)"/>
	<linearGradient id="f" x1="351.57" x2="527.25" y1="1299.8" y2="995.51" gradientUnits="userSpaceOnUse">
		<stop stop-color="#87390D" offset="0"/>
		<stop stop-color="#D95A1E" offset=".1576"/>
		<stop stop-color="#DA5E1D" offset=".2048"/>
		<stop stop-color="#DB6C1A" offset=".2568"/>
		<stop stop-color="#DE8215" offset=".311"/>
		<stop stop-color="#E2A10E" offset=".3668"/>
		<stop stop-color="#E7C806" offset=".4233"/>
		<stop stop-color="#EADD01" offset=".45"/>
		<stop stop-color="#EADD01" offset=".55"/>
		<stop stop-color="#E4B20B" offset=".6216"/>
		<stop stop-color="#DF8C13" offset=".6964"/>
		<stop stop-color="#DC7019" offset=".7656"/>
		<stop stop-color="#DA601D" offset=".8265"/>
		<stop stop-color="#D95A1E" offset=".8727"/>
		<stop stop-color="#8C390C" offset="1"/>
	</linearGradient>
	<path d="m485.85 971.6c-35.977-10.407-68.802-22.105-98.593-35.045l-3.485 374.22 98.32 64.385 3.758-403.56z" fill="url(#f)"/>
	<linearGradient id="e" x1="656.35" x2="670.58" y1="773.24" y2="692.53" gradientUnits="userSpaceOnUse">
		<stop stop-color="#87390D" offset="0"/>
		<stop stop-color="#D95A1E" offset=".1576"/>
		<stop stop-color="#DA5E1D" offset=".2048"/>
		<stop stop-color="#DB6C1A" offset=".2568"/>
		<stop stop-color="#DE8215" offset=".311"/>
		<stop stop-color="#E2A10E" offset=".3668"/>
		<stop stop-color="#E7C806" offset=".4233"/>
		<stop stop-color="#EADD01" offset=".45"/>
		<stop stop-color="#EADD01" offset=".55"/>
		<stop stop-color="#E4B20B" offset=".6216"/>
		<stop stop-color="#DF8C13" offset=".6964"/>
		<stop stop-color="#DC7019" offset=".7656"/>
		<stop stop-color="#DA601D" offset=".8265"/>
		<stop stop-color="#D95A1E" offset=".8727"/>
		<stop stop-color="#8C390C" offset="1"/>
	</linearGradient>
	<path d="m574.75 707.27c1.326 0.413 2.641 0.83 3.959 1.246 3.472 1.095 6.914 2.2 10.33 3.313 1.234 0.402 2.475 0.802 3.702 1.206 4.459 1.47 8.879 2.951 13.241 4.451 0.558 0.192 1.103 0.387 1.659 0.579 3.825 1.323 7.61 2.658 11.361 4.004 1.282 0.46 2.555 0.922 3.828 1.385 3.279 1.191 6.528 2.392 9.749 3.602 1.041 0.391 2.092 0.779 3.126 1.171 4.129 1.567 8.213 3.148 12.246 4.744 0.807 0.32 1.599 0.645 2.403 0.966 3.282 1.311 6.532 2.631 9.75 3.962 1.185 0.49 2.365 0.981 3.541 1.474 3.151 1.32 6.269 2.65 9.358 3.989 0.817 0.354 1.646 0.705 2.458 1.061 3.804 1.665 7.559 3.346 11.268 5.041 0.908 0.415 1.799 0.835 2.701 1.252 2.883 1.332 5.738 2.673 8.562 4.023 1.083 0.518 2.165 1.036 3.24 1.556 3.102 1.503 6.17 3.015 9.2 4.54 0.515 0.259 1.043 0.515 1.557 0.776 3.493 1.77 6.929 3.557 10.326 5.356 0.922 0.489 1.83 0.982 2.745 1.473 2.575 1.381 5.122 2.771 7.641 4.169 0.963 0.535 1.929 1.069 2.884 1.606 3.17 1.784 6.307 3.577 9.386 5.389 0.114 0.067 0.232 0.134 0.347 0.201 3.183 1.876 6.303 3.771 9.389 5.678 0.889 0.549 1.766 1.102 2.647 1.653 2.314 1.449 4.6 2.907 6.858 4.373 0.539 0.35 1.1 0.693 1.637 1.043l-98.32-64.385c-30.398-19.906-65.897-38.213-106.44-54.938l-0.277 29.776c4.701 1.405 9.336 2.83 13.94 4.265z" fill="url(#e)"/>
	<linearGradient id="d" x1="101.53" x2="250.88" y1="1325.9" y2="1067.2" gradientUnits="userSpaceOnUse">
		<stop stop-color="#9C420F" offset="0"/>
		<stop stop-color="#EE6321" offset=".1576"/>
		<stop stop-color="#EF6720" offset=".2028"/>
		<stop stop-color="#F0751D" offset=".2526"/>
		<stop stop-color="#F38B18" offset=".3045"/>
		<stop stop-color="#F6AA11" offset=".3579"/>
		<stop stop-color="#FBD108" offset=".412"/>
		<stop stop-color="#FFF101" offset=".45"/>
		<stop stop-color="#FFF101" offset=".55"/>
		<stop stop-color="#FEEC02" offset=".5578"/>
		<stop stop-color="#F9BB0D" offset=".6334"/>
		<stop stop-color="#F49516" offset=".705"/>
		<stop stop-color="#F1791C" offset=".7708"/>
		<stop stop-color="#EF6920" offset=".8288"/>
		<stop stop-color="#EE6321" offset=".8727"/>
		<stop stop-color="#A1420E" offset="1"/>
	</linearGradient>
	<path d="m211.68 1388c-1.511-1.131-2.984-2.281-4.445-3.436-1.656-1.309-3.29-2.628-4.882-3.967-1.406-1.182-2.782-2.38-4.14-3.586-1.534-1.364-3.038-2.74-4.508-4.134-1.303-1.234-2.581-2.479-3.834-3.737-1.414-1.42-2.793-2.856-4.144-4.306-1.195-1.282-2.373-2.573-3.519-3.879-1.296-1.479-2.551-2.978-3.784-4.486-1.088-1.331-2.166-2.667-3.204-4.021-1.178-1.536-2.307-3.096-3.42-4.662-0.981-1.38-1.96-2.76-2.891-4.163-1.062-1.598-2.068-3.224-3.065-4.852-0.871-1.421-1.745-2.841-2.567-4.285-0.948-1.668-1.834-3.365-2.717-5.062-0.759-1.459-1.529-2.912-2.24-4.394-0.834-1.739-1.599-3.511-2.367-5.281-0.649-1.494-1.315-2.98-1.917-4.497-0.72-1.816-1.363-3.669-2.015-5.517-0.537-1.522-1.101-3.033-1.592-4.577-0.607-1.905-1.128-3.851-1.665-5.79-0.426-1.54-0.886-3.064-1.268-4.625-0.494-2.018-0.895-4.081-1.316-6.134-0.314-1.532-0.669-3.044-0.941-4.595-0.383-2.177-0.664-4.401-0.966-6.616-0.202-1.481-0.452-2.938-0.618-4.435-0.275-2.485-0.438-5.023-0.613-7.556-0.088-1.275-0.232-2.522-0.295-3.809-0.189-3.843-0.271-7.736-0.234-11.685 0.35-37.577 11.179-69.038 32.487-94.359 21.308-25.29 49.2-39.749 83.683-43.373 2.267-0.238 4.501-0.433 6.711-0.595 0.729-0.053 1.441-0.084 2.164-0.129 1.471-0.092 2.94-0.181 4.386-0.238 0.843-0.033 1.669-0.046 2.503-0.068 1.299-0.034 2.596-0.064 3.874-0.07 0.874-3e-3 1.736 9e-3 2.6 0.019 1.216 0.014 2.427 0.034 3.623 0.074 0.866 0.029 1.724 0.068 2.58 0.11 1.171 0.059 2.333 0.13 3.485 0.214 0.845 0.062 1.687 0.128 2.522 0.204 1.144 0.104 2.274 0.225 3.398 0.355 0.805 0.094 1.612 0.184 2.408 0.291 1.149 0.154 2.281 0.332 3.41 0.514 0.739 0.119 1.484 0.23 2.214 0.361 1.212 0.218 2.4 0.466 3.587 0.717 0.62 0.131 1.25 0.247 1.863 0.388 1.615 0.368 3.202 0.772 4.77 1.203 0.165 0.045 0.335 0.082 0.499 0.128 1.727 0.484 3.422 1.01 5.092 1.57 0.529 0.177 1.04 0.378 1.564 0.563 1.131 0.4 2.258 0.804 3.362 1.24 0.625 0.247 1.235 0.516 1.852 0.774 0.976 0.409 1.95 0.822 2.905 1.259 0.644 0.296 1.276 0.608 1.91 0.917 0.904 0.44 1.803 0.887 2.688 1.354 0.634 0.335 1.26 0.68 1.884 1.028 0.859 0.479 1.708 0.971 2.548 1.476 0.613 0.369 1.221 0.742 1.823 1.126 0.34 0.216 0.694 0.415 1.031 0.636l-98.32-64.385c-21.214-13.892-48.964-19.027-83.256-15.423-34.482 3.624-62.374 18.083-83.682 43.374-21.308 25.32-32.137 56.782-32.487 94.359-0.577 61.885 26.465 110.72 81.12 146.52l98.319 64.385c-0.671-0.44-1.287-0.906-1.951-1.349-1.614-1.08-3.184-2.182-4.749-3.285-1.779-1.25-3.539-2.51-5.253-3.793z" fill="url(#d)"/>
	<linearGradient id="c" x1="607.9" x2="702.02" y1="514.28" y2="351.27" gradientUnits="userSpaceOnUse">
		<stop stop-color="#9C420F" offset="0"/>
		<stop stop-color="#EE6321" offset=".1576"/>
		<stop stop-color="#EF6720" offset=".2028"/>
		<stop stop-color="#F0751D" offset=".2526"/>
		<stop stop-color="#F38B18" offset=".3045"/>
		<stop stop-color="#F6AA11" offset=".3579"/>
		<stop stop-color="#FBD108" offset=".412"/>
		<stop stop-color="#FFF101" offset=".45"/>
		<stop stop-color="#FFF101" offset=".55"/>
		<stop stop-color="#FEEC02" offset=".5578"/>
		<stop stop-color="#F9BB0D" offset=".6334"/>
		<stop stop-color="#F49516" offset=".705"/>
		<stop stop-color="#F1791C" offset=".7708"/>
		<stop stop-color="#EF6920" offset=".8288"/>
		<stop stop-color="#EE6321" offset=".8727"/>
		<stop stop-color="#A1420E" offset="1"/>
	</linearGradient>
	<path d="m713.94 373.33c-0.044-0.344-0.103-0.685-0.16-1.026-0.165-0.983-0.384-1.957-0.658-2.921-0.074-0.261-0.131-0.525-0.213-0.785-0.374-1.181-0.834-2.347-1.375-3.497-0.124-0.264-0.274-0.524-0.407-0.786-0.466-0.92-0.986-1.831-1.56-2.732-0.199-0.312-0.394-0.625-0.606-0.935-0.764-1.118-1.585-2.225-2.517-3.311-0.037-0.044-0.082-0.086-0.119-0.129-0.905-1.045-1.91-2.072-2.97-3.089-0.31-0.297-0.633-0.592-0.956-0.886-0.936-0.852-1.926-1.695-2.974-2.527-0.266-0.212-0.513-0.427-0.787-0.637-1.312-1.009-2.711-2.001-4.189-2.98-5.78-3.825-12.81-7.42-21.127-10.777-19.441-7.863-41.617-11.851-66.429-12.12-0.851 0.824-1.761 1.687-2.733 2.59-20.568 20.455-34.024 40.804-40.416 61.047l-0.571 61.296c4.588 18.36 13.355 33.348 26.338 44.956 3.22 2.889 6.618 5.504 10.192 7.844l98.319 64.386c-0.291-0.191-0.563-0.411-0.852-0.606-1.141-0.768-2.262-1.568-3.367-2.393-0.484-0.361-0.973-0.711-1.45-1.083-1.541-1.203-3.056-2.445-4.523-3.762-20.397-18.237-30.433-44.781-30.108-79.713 0.27-28.974 15.181-58.169 44.758-87.585 7.795-7.242 11.688-11.962 11.707-14.105 0.014-1.262-0.09-2.503-0.247-3.734z" fill="url(#c)"/>
	<linearGradient id="b" x1="488.56" x2="338.77" y1="641.2" y2="641.2" gradientUnits="userSpaceOnUse">
		<stop stop-color="#9C420F" offset="0"/>
		<stop stop-color="#EE6321" offset=".1576"/>
		<stop stop-color="#EF6720" offset=".2028"/>
		<stop stop-color="#F0751D" offset=".2526"/>
		<stop stop-color="#F38B18" offset=".3045"/>
		<stop stop-color="#F6AA11" offset=".3579"/>
		<stop stop-color="#FBD108" offset=".412"/>
		<stop stop-color="#FFF101" offset=".45"/>
		<stop stop-color="#FFF101" offset=".55"/>
		<stop stop-color="#FEEC02" offset=".5578"/>
		<stop stop-color="#F9BB0D" offset=".6334"/>
		<stop stop-color="#F49516" offset=".705"/>
		<stop stop-color="#F1791C" offset=".7708"/>
		<stop stop-color="#EF6920" offset=".8288"/>
		<stop stop-color="#EE6321" offset=".8727"/>
		<stop stop-color="#A1420E" offset="1"/>
	</linearGradient>
	<path d="m338.77 601.58c4.646 6.409 9.897 12.451 15.832 18.076 6.82 6.465 14.672 12.567 23.529 18.317 0.547 0.355 1.114 0.704 1.67 1.057 1.545 0.981 3.117 1.952 4.722 2.912 0.681 0.407 1.365 0.813 2.057 1.217 1.707 0.995 3.45 1.977 5.223 2.95 0.514 0.282 1.013 0.569 1.532 0.848 2.276 1.226 4.607 2.433 6.989 3.622 0.578 0.289 1.177 0.57 1.762 0.857 1.86 0.911 3.747 1.812 5.671 2.7 0.809 0.374 1.624 0.745 2.444 1.115 1.907 0.86 3.846 1.708 5.813 2.546 0.685 0.292 1.358 0.589 2.051 0.878 2.638 1.102 5.323 2.188 8.067 3.252 0.531 0.206 1.081 0.405 1.616 0.61 2.257 0.863 4.548 1.715 6.877 2.553 0.907 0.326 1.823 0.649 2.74 0.972 2.133 0.75 4.297 1.49 6.489 2.219 0.848 0.282 1.687 0.568 2.544 0.848 2.998 0.978 6.039 1.94 9.144 2.88 0.379 0.115 0.771 0.224 1.151 0.338 2.754 0.826 5.553 1.636 8.39 2.434 0.999 0.281 2.011 0.557 3.021 0.834 2.378 0.652 4.785 1.295 7.221 1.927 0.995 0.258 1.984 0.519 2.988 0.774 3.366 0.855 6.769 1.697 10.243 2.513l-98.32-64.385c-18.729-4.402-35.866-9.363-51.466-14.864z" fill="url(#b)"/>
	<linearGradient id="a" x1="652.64" x2="693.94" y1="301.71" y2="230.18" gradientUnits="userSpaceOnUse">
		<stop stop-color="#A1420E" offset="0"/>
		<stop stop-color="#EE6321" offset=".1273"/>
		<stop stop-color="#EF6920" offset=".1712"/>
		<stop stop-color="#F1791C" offset=".2292"/>
		<stop stop-color="#F49516" offset=".295"/>
		<stop stop-color="#F9BB0D" offset=".3666"/>
		<stop stop-color="#FEEC02" offset=".4422"/>
		<stop stop-color="#FFF101" offset=".45"/>
		<stop stop-color="#FFF101" offset=".55"/>
		<stop stop-color="#FBD108" offset=".588"/>
		<stop stop-color="#F6AA11" offset=".6421"/>
		<stop stop-color="#F38B18" offset=".6955"/>
		<stop stop-color="#F0751D" offset=".7474"/>
		<stop stop-color="#EF6720" offset=".7972"/>
		<stop stop-color="#EE6321" offset=".8424"/>
	</linearGradient>
	<path d="m797.78 297.86c2.255 1.385 4.467 2.788 6.636 4.209l-98.319-64.386c-2.169-1.421-4.382-2.823-6.637-4.208-37.698-23.145-82.329-37.884-133.87-44.249l-0.576 61.893c95.131-5.689 172.73 9.881 232.76 46.741z" fill="url(#a)"/>
	<linearGradient id="n" x1="387.44" x2="535.78" y1="622.45" y2="365.52" gradientUnits="userSpaceOnUse">
		<stop stop-color="#87390D" offset="0"/>
		<stop stop-color="#D95A1E" offset=".1576"/>
		<stop stop-color="#DA5E1D" offset=".2048"/>
		<stop stop-color="#DB6C1A" offset=".2568"/>
		<stop stop-color="#DE8215" offset=".311"/>
		<stop stop-color="#E2A10E" offset=".3668"/>
		<stop stop-color="#E7C806" offset=".4233"/>
		<stop stop-color="#EADD01" offset=".45"/>
		<stop stop-color="#EADD01" offset=".55"/>
		<stop stop-color="#E4B20B" offset=".6216"/>
		<stop stop-color="#DF8C13" offset=".6964"/>
		<stop stop-color="#DC7019" offset=".7656"/>
		<stop stop-color="#DA601D" offset=".8265"/>
		<stop stop-color="#D95A1E" offset=".8727"/>
		<stop stop-color="#8C390C" offset="1"/>
	</linearGradient>
	<path d="m488.56 680.83l3.173-340.74c-39.205 8.994-72.292 22.396-99.293 40.176l-2.2 236.17 98.32 64.386z" fill="url(#n)"/>
	<linearGradient id="m" x1="418.13" x2="469.47" y1="220.68" y2="131.76" gradientUnits="userSpaceOnUse">
		<stop stop-color="#EE6321" offset=".1576"/>
		<stop stop-color="#EF6720" offset=".2028"/>
		<stop stop-color="#F0751D" offset=".2526"/>
		<stop stop-color="#F38B18" offset=".3045"/>
		<stop stop-color="#F6AA11" offset=".3579"/>
		<stop stop-color="#FBD108" offset=".412"/>
		<stop stop-color="#FFF101" offset=".45"/>
		<stop stop-color="#FFF101" offset=".55"/>
		<stop stop-color="#FEEC02" offset=".5578"/>
		<stop stop-color="#F9BB0D" offset=".6334"/>
		<stop stop-color="#F49516" offset=".705"/>
		<stop stop-color="#F1791C" offset=".7708"/>
		<stop stop-color="#EF6920" offset=".8288"/>
		<stop stop-color="#EE6321" offset=".8727"/>
	</linearGradient>
	<polygon points="493.47 153.24 395.15 88.854 394.12 199.2 492.44 263.59" fill="url(#m)"/>
	<linearGradient id="l" x1="468.02" x2="493.14" y1="137.33" y2="97.136" gradientUnits="userSpaceOnUse">
		<stop stop-color="#EE6321" offset=".1187"/>
		<stop stop-color="#EF6720" offset=".1699"/>
		<stop stop-color="#F0751D" offset=".2263"/>
		<stop stop-color="#F38B18" offset=".2851"/>
		<stop stop-color="#F6AA11" offset=".3457"/>
		<stop stop-color="#FBD108" offset=".4069"/>
		<stop stop-color="#FFF101" offset=".45"/>
		<stop stop-color="#FFF101" offset=".55"/>
		<stop stop-color="#FEEC02" offset=".5609"/>
		<stop stop-color="#F9BB0D" offset=".6663"/>
		<stop stop-color="#F49516" offset=".7661"/>
		<stop stop-color="#F1791C" offset=".8579"/>
		<stop stop-color="#EF6920" offset=".9387"/>
		<stop stop-color="#EE6321" offset="1"/>
	</linearGradient>
	<polygon points="566 145.62 467.68 81.23 395.15 88.854 493.47 153.24" fill="url(#l)"/>
	<linearGradient id="k" x1="142.5" x2="914.39" y1="913.42" y2="913.42" gradientUnits="userSpaceOnUse">
		<stop stop-color="#9C420F" offset="0"/>
		<stop stop-color="#EE6321" offset=".1576"/>
		<stop stop-color="#EF6720" offset=".2028"/>
		<stop stop-color="#F0751D" offset=".2526"/>
		<stop stop-color="#F38B18" offset=".3045"/>
		<stop stop-color="#F6AA11" offset=".3579"/>
		<stop stop-color="#FBD108" offset=".412"/>
		<stop stop-color="#FFF101" offset=".45"/>
		<stop stop-color="#FFF101" offset=".55"/>
		<stop stop-color="#FEEC02" offset=".5578"/>
		<stop stop-color="#F9BB0D" offset=".6334"/>
		<stop stop-color="#F49516" offset=".705"/>
		<stop stop-color="#F1791C" offset=".7708"/>
		<stop stop-color="#EF6920" offset=".8288"/>
		<stop stop-color="#EE6321" offset=".8727"/>
		<stop stop-color="#A1420E" offset="1"/>
	</linearGradient>
	<path d="m830.87 845.22c-18.587-19.042-40.822-36.94-66.656-53.711-2.259-1.466-4.544-2.924-6.858-4.373-0.881-0.551-1.758-1.104-2.647-1.653-3.086-1.907-6.206-3.803-9.389-5.678-0.114-0.068-0.232-0.134-0.347-0.201-3.079-1.812-6.217-3.606-9.386-5.389-0.955-0.537-1.92-1.071-2.884-1.606-2.519-1.398-5.066-2.788-7.641-4.169-0.915-0.491-1.823-0.984-2.745-1.473-3.397-1.799-6.833-3.587-10.326-5.356-0.514-0.26-1.041-0.516-1.557-0.776-3.03-1.525-6.098-3.038-9.2-4.54-1.074-0.52-2.156-1.038-3.24-1.556-2.825-1.35-5.679-2.691-8.562-4.023-0.902-0.417-1.794-0.837-2.701-1.252-3.709-1.695-7.464-3.376-11.268-5.041-0.813-0.356-1.641-0.706-2.458-1.061-3.089-1.339-6.207-2.669-9.358-3.989-1.177-0.493-2.356-0.984-3.541-1.474-3.218-1.331-6.468-2.651-9.75-3.962-0.804-0.321-1.596-0.646-2.403-0.966-4.033-1.596-8.117-3.177-12.246-4.744-1.035-0.392-2.085-0.78-3.126-1.171-3.221-1.21-6.47-2.41-9.749-3.602-1.273-0.462-2.547-0.925-3.828-1.385-3.751-1.346-7.536-2.681-11.361-4.004-0.556-0.192-1.101-0.387-1.659-0.579-4.362-1.5-8.782-2.981-13.241-4.451-1.227-0.405-2.468-0.804-3.702-1.206-3.415-1.113-6.858-2.217-10.33-3.313-1.318-0.416-2.633-0.833-3.959-1.246-4.604-1.435-9.24-2.86-13.941-4.265l0.277-29.776 2.087-224.1 0.571-61.296 0.568-61 10.799-1.135c11.064-1.162 21.621-1.612 31.781-1.501 24.812 0.269 46.989 4.257 66.429 12.12 8.317 3.358 15.347 6.953 21.127 10.777 1.478 0.978 2.877 1.971 4.189 2.98 0.273 0.21 0.521 0.425 0.787 0.637 1.047 0.832 2.038 1.675 2.974 2.527 0.323 0.295 0.646 0.589 0.956 0.886 1.061 1.017 2.065 2.044 2.97 3.089 0.037 0.043 0.082 0.085 0.119 0.129 0.932 1.086 1.753 2.193 2.517 3.311 0.212 0.31 0.407 0.623 0.606 0.935 0.574 0.901 1.093 1.811 1.56 2.732 0.133 0.263 0.283 0.522 0.407 0.786 0.541 1.15 1 2.316 1.375 3.497 0.082 0.26 0.139 0.524 0.213 0.785 0.274 0.964 0.493 1.938 0.658 2.921 0.057 0.341 0.116 0.682 0.16 1.026 0.157 1.231 0.261 2.472 0.249 3.733-0.02 2.142-3.912 6.862-11.707 14.105-29.577 29.416-44.488 58.61-44.758 87.585-0.325 34.932 9.711 61.477 30.108 79.713 1.467 1.317 2.983 2.56 4.523 3.762 0.477 0.372 0.966 0.723 1.45 1.083 1.105 0.825 2.225 1.625 3.367 2.393 19.165 12.894 43.475 17.8 72.947 14.702 34.959-3.674 63.099-17.63 84.397-41.864s32.119-54.876 32.464-91.922c0.58-62.295-29.134-111.87-89.196-148.76-60.036-36.859-137.63-52.43-232.76-46.742l0.576-61.893 0.406-43.614-72.531 7.624-1.028 110.35c-103.52 23.228-183.72 66.498-240.59 129.9-56.866 63.37-85.719 141.51-86.584 234.39-0.8 85.926 24.868 156.72 77.03 212.42 2.902 3.097 5.927 6.143 9.008 9.166 0.834 0.818 1.68 1.631 2.527 2.444 2.664 2.556 5.388 5.087 8.182 7.59 0.541 0.484 1.061 0.976 1.607 1.459 3.284 2.903 6.671 5.764 10.132 8.595 0.876 0.716 1.773 1.424 2.66 2.136 2.86 2.295 5.778 4.565 8.755 6.811 0.855 0.645 1.696 1.296 2.56 1.938 3.686 2.732 7.454 5.43 11.316 8.091 0.797 0.549 1.62 1.088 2.425 1.634 24.975 16.949 53.583 32.408 85.785 46.396 29.791 12.94 62.616 24.638 98.593 35.045l-3.758 403.56c-41.675 3.851-76.843 0.01-105.51-11.464-2.044-0.815-3.994-1.646-5.891-2.485-0.592-0.262-1.156-0.529-1.734-0.793-1.293-0.591-2.557-1.187-3.779-1.789-0.616-0.304-1.223-0.611-1.822-0.918-1.174-0.603-2.307-1.212-3.411-1.827-0.513-0.285-1.038-0.568-1.536-0.856-1.432-0.828-2.808-1.666-4.116-2.514-13.771-8.94-20.615-19.008-20.511-30.188 5e-3 -0.531 1.991-4.021 5.945-10.458 3.916-6.377 9.761-15.647 17.537-27.818 15.652-24.432 23.606-48.994 23.836-73.712 0.32-34.348-10.507-60.308-32.428-77.859-2.483-1.985-5.084-3.813-7.773-5.522-0.602-0.383-1.211-0.757-1.823-1.126-0.839-0.505-1.689-0.997-2.548-1.476-0.624-0.348-1.25-0.694-1.884-1.028-0.884-0.467-1.784-0.914-2.688-1.354-0.634-0.309-1.266-0.621-1.91-0.917-0.955-0.438-1.929-0.85-2.905-1.259-0.617-0.259-1.226-0.527-1.852-0.774-1.104-0.436-2.232-0.84-3.362-1.24-0.523-0.185-1.035-0.386-1.564-0.563-1.67-0.56-3.365-1.087-5.092-1.57-0.164-0.046-0.335-0.083-0.499-0.128-1.568-0.432-3.156-0.835-4.77-1.203-0.613-0.14-1.243-0.256-1.863-0.388-1.187-0.251-2.376-0.499-3.587-0.717-0.73-0.131-1.475-0.242-2.214-0.361-1.129-0.182-2.261-0.36-3.41-0.514-0.796-0.107-1.603-0.198-2.408-0.291-1.124-0.13-2.254-0.251-3.398-0.355-0.835-0.076-1.677-0.142-2.522-0.204-1.152-0.084-2.314-0.155-3.485-0.214-0.855-0.042-1.713-0.082-2.58-0.11-1.196-0.04-2.407-0.061-3.623-0.074-0.864-0.01-1.726-0.022-2.6-0.019-1.278 6e-3 -2.576 0.036-3.874 0.07-0.834 0.022-1.66 0.035-2.503 0.068-1.446 0.057-2.915 0.146-4.386 0.238-0.723 0.045-1.435 0.075-2.164 0.129-2.21 0.162-4.444 0.357-6.711 0.595-34.482 3.624-62.375 18.083-83.683 43.373-21.308 25.32-32.137 56.782-32.487 94.359-0.036 3.949 0.046 7.842 0.234 11.685 0.063 1.286 0.206 2.534 0.295 3.809 0.175 2.532 0.338 5.07 0.613 7.556 0.166 1.497 0.416 2.955 0.618 4.435 0.302 2.215 0.583 4.44 0.966 6.616 0.273 1.551 0.628 3.063 0.941 4.595 0.421 2.053 0.822 4.115 1.316 6.134 0.382 1.561 0.842 3.085 1.268 4.625 0.537 1.938 1.058 3.884 1.665 5.79 0.491 1.544 1.055 3.054 1.592 4.577 0.652 1.848 1.295 3.701 2.015 5.517 0.601 1.517 1.268 3.003 1.917 4.497 0.768 1.771 1.532 3.543 2.367 5.281 0.711 1.481 1.481 2.935 2.24 4.394 0.883 1.698 1.769 3.395 2.717 5.062 0.822 1.444 1.696 2.864 2.567 4.285 0.997 1.629 2.003 3.254 3.065 4.852 0.932 1.403 1.91 2.783 2.891 4.163 1.114 1.566 2.243 3.126 3.42 4.662 1.039 1.354 2.116 2.69 3.204 4.021 1.233 1.509 2.488 3.007 3.784 4.486 1.146 1.306 2.324 2.596 3.519 3.879 1.351 1.45 2.729 2.887 4.144 4.306 1.253 1.258 2.531 2.503 3.834 3.737 1.47 1.393 2.975 2.77 4.508 4.134 1.358 1.206 2.734 2.403 4.14 3.586 1.593 1.339 3.226 2.658 4.882 3.967 1.461 1.155 2.935 2.304 4.445 3.436 1.713 1.283 3.474 2.543 5.251 3.796 1.565 1.103 3.135 2.204 4.749 3.285 2.89 1.933 5.807 3.853 8.855 5.712 39.715 24.234 90.407 40.277 151.95 48.231 30.326 3.92 63.242 5.907 98.864 5.88l-2.108 226.34 72.531-7.623 2.108-226.34c112.75-20.972 200.79-64.949 264.12-131.96 63.308-67.009 95.439-150.45 96.369-250.35 0.83-88.602-27.006-161.84-83.501-219.75zm-470.03-439.46c9.386-9.322 19.933-17.809 31.599-25.491 27.002-17.78 60.089-31.182 99.293-40.176l-3.173 340.74c-3.474-0.817-6.877-1.659-10.243-2.513-1.004-0.255-1.993-0.515-2.988-0.774-2.435-0.632-4.843-1.275-7.221-1.927-1.01-0.277-2.022-0.553-3.021-0.834-2.837-0.798-5.636-1.608-8.39-2.434-0.38-0.114-0.772-0.223-1.151-0.338-3.105-0.94-6.146-1.902-9.144-2.88-0.857-0.28-1.696-0.566-2.544-0.848-2.191-0.73-4.356-1.469-6.489-2.219-0.917-0.323-1.833-0.646-2.74-0.972-2.328-0.839-4.619-1.69-6.877-2.553-0.535-0.205-1.085-0.404-1.616-0.61-2.743-1.065-5.429-2.15-8.067-3.252-0.693-0.29-1.366-0.586-2.051-0.878-1.967-0.839-3.907-1.687-5.813-2.546-0.82-0.37-1.636-0.741-2.444-1.115-1.923-0.889-3.811-1.79-5.671-2.7-0.585-0.287-1.184-0.568-1.762-0.857-2.383-1.189-4.713-2.396-6.989-3.622-0.519-0.28-1.018-0.567-1.532-0.848-1.773-0.973-3.516-1.955-5.223-2.95-0.692-0.404-1.376-0.81-2.057-1.217-1.605-0.96-3.177-1.931-4.722-2.912-0.556-0.352-1.122-0.702-1.67-1.057-8.857-5.749-16.709-11.851-23.529-18.317-5.935-5.625-11.185-11.667-15.832-18.076-17.095-23.58-25.516-52.443-25.197-86.65 0.39-41.895 16.126-78.272 47.264-109.17zm341.02 881.93c-34.259 34.16-83.329 59.992-147.22 77.413l0.978-105.04 2.465-264.68c27.639 8.558 52.014 17.187 73.22 25.885 25.907 10.627 47.029 21.362 63.339 32.209 0.779 0.518 1.535 1.037 2.292 1.555 1.349 0.924 2.664 1.848 3.943 2.774 0.726 0.526 1.452 1.052 2.156 1.578 1.306 0.975 2.559 1.951 3.787 2.928 0.574 0.456 1.168 0.912 1.725 1.369 1.739 1.426 3.417 2.854 4.992 4.284 27.248 24.761 40.684 57.282 40.309 97.557-0.439 47.266-17.76 87.974-51.99 122.16z" fill="url(#k)"/>
	<linearGradient id="j" x1="124.14" x2="446.74" y1="788.34" y2="229.58" gradientUnits="userSpaceOnUse">
		<stop stop-color="#9C420F" offset="0"/>
		<stop stop-color="#EE6321" offset=".1576"/>
		<stop stop-color="#EF6720" offset=".2028"/>
		<stop stop-color="#F0751D" offset=".2526"/>
		<stop stop-color="#F38B18" offset=".3045"/>
		<stop stop-color="#F6AA11" offset=".3579"/>
		<stop stop-color="#FBD108" offset=".412"/>
		<stop stop-color="#FFF101" offset=".45"/>
		<stop stop-color="#FFF101" offset=".55"/>
		<stop stop-color="#FEEC02" offset=".5578"/>
		<stop stop-color="#F9BB0D" offset=".6334"/>
		<stop stop-color="#F49516" offset=".705"/>
		<stop stop-color="#F1791C" offset=".7708"/>
		<stop stop-color="#EF6920" offset=".8288"/>
		<stop stop-color="#EE6321" offset=".8727"/>
		<stop stop-color="#CC5312" offset="1"/>
	</linearGradient>
	<path d="m287.73 880.44c-0.865-0.641-1.705-1.292-2.56-1.938-2.977-2.246-5.896-4.516-8.755-6.811-0.887-0.712-1.784-1.419-2.66-2.136-3.461-2.831-6.848-5.692-10.132-8.595-0.546-0.482-1.066-0.975-1.607-1.459-2.794-2.503-5.518-5.034-8.182-7.59-0.847-0.813-1.693-1.626-2.527-2.444-3.081-3.023-6.106-6.069-9.008-9.166-52.162-55.694-77.83-126.49-77.03-212.42 0.865-92.883 29.718-171.02 86.584-234.39 56.868-63.4 137.06-106.67 240.59-129.9l-98.319-64.386c-103.52 23.228-183.72 66.499-240.59 129.9-56.866 63.37-85.719 141.51-86.584 234.39-0.8 85.926 24.869 156.72 77.031 212.42 18.148 19.368 39.81 37.294 64.985 53.78l98.319 64.385c-1.972-1.292-3.884-2.608-5.813-3.917-0.805-0.546-1.628-1.085-2.425-1.634-3.864-2.657-7.632-5.356-11.317-8.088z" fill="url(#j)"/>
</svg>